<mxfile host="app.diagrams.net" agent="Mozilla/5.0 (Windows NT 10.0; Win64; x64) AppleWebKit/537.36 (KHTML, like Gecko) Chrome/138.0.0.0 Safari/537.36" version="28.0.7">
  <diagram name="Page-1" id="yCU3NQoSeSVH8B0a_m98">
    <mxGraphModel dx="1042" dy="562" grid="1" gridSize="10" guides="1" tooltips="1" connect="1" arrows="1" fold="1" page="1" pageScale="1" pageWidth="827" pageHeight="1169" math="0" shadow="0">
      <root>
        <mxCell id="0" />
        <mxCell id="1" parent="0" />
        <mxCell id="xC5DFOjfil0J7wxQVFWy-22" value="" style="edgeStyle=orthogonalEdgeStyle;rounded=0;orthogonalLoop=1;jettySize=auto;html=1;" edge="1" parent="1" source="xC5DFOjfil0J7wxQVFWy-1">
          <mxGeometry relative="1" as="geometry">
            <mxPoint x="414" y="200" as="targetPoint" />
          </mxGeometry>
        </mxCell>
        <mxCell id="xC5DFOjfil0J7wxQVFWy-1" value="plan" style="ellipse;whiteSpace=wrap;html=1;" vertex="1" parent="1">
          <mxGeometry x="354" width="120" height="80" as="geometry" />
        </mxCell>
        <mxCell id="xC5DFOjfil0J7wxQVFWy-12" value="" style="edgeStyle=orthogonalEdgeStyle;rounded=0;orthogonalLoop=1;jettySize=auto;html=1;" edge="1" parent="1" source="xC5DFOjfil0J7wxQVFWy-2">
          <mxGeometry relative="1" as="geometry">
            <mxPoint x="414" y="390" as="targetPoint" />
          </mxGeometry>
        </mxCell>
        <mxCell id="xC5DFOjfil0J7wxQVFWy-2" value="develop" style="ellipse;whiteSpace=wrap;html=1;" vertex="1" parent="1">
          <mxGeometry x="354" y="210" width="120" height="80" as="geometry" />
        </mxCell>
        <mxCell id="xC5DFOjfil0J7wxQVFWy-27" value="" style="edgeStyle=orthogonalEdgeStyle;rounded=0;orthogonalLoop=1;jettySize=auto;html=1;" edge="1" parent="1" source="xC5DFOjfil0J7wxQVFWy-4" target="xC5DFOjfil0J7wxQVFWy-26">
          <mxGeometry relative="1" as="geometry" />
        </mxCell>
        <mxCell id="xC5DFOjfil0J7wxQVFWy-4" value="build" style="ellipse;whiteSpace=wrap;html=1;" vertex="1" parent="1">
          <mxGeometry x="354" y="400" width="120" height="80" as="geometry" />
        </mxCell>
        <mxCell id="xC5DFOjfil0J7wxQVFWy-5" value="Release" style="ellipse;whiteSpace=wrap;html=1;" vertex="1" parent="1">
          <mxGeometry x="354" y="790" width="120" height="80" as="geometry" />
        </mxCell>
        <mxCell id="xC5DFOjfil0J7wxQVFWy-31" value="" style="edgeStyle=orthogonalEdgeStyle;rounded=0;orthogonalLoop=1;jettySize=auto;html=1;" edge="1" parent="1" source="xC5DFOjfil0J7wxQVFWy-26">
          <mxGeometry relative="1" as="geometry">
            <mxPoint x="414" y="790" as="targetPoint" />
          </mxGeometry>
        </mxCell>
        <mxCell id="xC5DFOjfil0J7wxQVFWy-26" value="Test" style="ellipse;whiteSpace=wrap;html=1;" vertex="1" parent="1">
          <mxGeometry x="354" y="590" width="120" height="80" as="geometry" />
        </mxCell>
      </root>
    </mxGraphModel>
  </diagram>
</mxfile>
